<svg xmlns="http://www.w3.org/2000/svg" width="16" height="10.97"><path d="M14 10.98a1.9 1.9 0 001.99-1.79V1.81A1.9 1.9 0 0014 .01H1.99A1.911 1.911 0 000 1.81v7.38a1.9 1.9 0 001.99 1.79H14zM2.04 2.51a.415.415 0 01-.06-.63.544.544 0 01.69-.05L8 5.9l5.32-4.06a.533.533 0 01.7.05.419.419 0 01-.06.62l-3.8 2.9 3.82 3.23a.427.427 0 01.02.63.537.537 0 01-.7.02l-3.9-3.3-1.09.83a.5.5 0 01-.31.1.509.509 0 01-.32-.1l-1.09-.83-3.9 3.3a.543.543 0 01-.34.12.5.5 0 01-.35-.14.413.413 0 01.02-.63l3.81-3.23z"/></svg>