<svg xmlns="http://www.w3.org/2000/svg" width="512" height="512" viewBox="0 0 512 512">
  <g transform="translate(0.000000,512.000000) scale(0.100000,-0.100000)">
    <path d="M2850 5104 c-364 -66 -665 -266 -818 -544 -37 -65 -80 -191 -93 -269
    -5 -31 -9 -244 -9 -473 l0 -418 -307 0 c-332 -1 -332 -1 -353 -54 -14 -37 -14
    -865 0 -902 21 -53 22 -53 343 -54 l297 0 0 -1173 0 -1174 23 -21 23 -22 516
    0 517 0 20 26 c21 27 21 28 21 1190 l0 1164 334 0 c184 0 342 3 351 6 8 4 22
    19 30 33 8 16 35 210 65 469 54 464 54 466 11 499 -12 9 -115 12 -404 13
    l-389 0 4 303 c4 329 6 343 64 400 59 59 72 61 399 64 196 2 308 7 322 15 12
    6 27 24 33 41 6 19 10 177 10 429 0 419 -3 445 -45 462 -9 3 -213 6 -453 5
    -324 -1 -456 -4 -512 -15z"/>
  </g>
</svg>
